<svg width="48" height="50" viewBox="0 0 48 50" fill="none" xmlns="http://www.w3.org/2000/svg">
  <path d="M11.1617 36.4546C8.8795 38.713 5.1031 38.7357 3.4385 35.9994C2.0166 33.6621 1.0047 31.0874 0.461198 28.3834C-0.464902 23.7764 0.0103973 19.001 1.8269 14.6613C3.6434 10.3215 6.7195 6.6123 10.6663 4.0026C14.6131 1.3929 19.2533 0 24 0C28.7467 0 33.387 1.3929 37.334 4.0026C41.281 6.6123 44.357 10.3215 46.173 14.6613C47.99 19.001 48.465 23.7764 47.539 28.3834C46.995 31.0874 45.983 33.6621 44.562 35.9994C42.897 38.7357 39.121 38.713 36.838 36.4546C34.556 34.1963 34.736 30.5165 35.723 27.4756C35.866 27.0346 35.984 26.5844 36.076 26.127C36.551 23.7635 36.307 21.3138 35.375 19.0874C34.443 16.861 32.865 14.9581 30.8404 13.6194C28.8155 12.2806 26.4351 11.566 24 11.566C21.5649 11.566 19.1845 12.2806 17.1596 13.6194C15.1349 14.9581 13.5569 16.861 12.6249 19.0874C11.6931 21.3138 11.4492 23.7635 11.9243 26.127C12.0163 26.5844 12.1343 27.0346 12.2774 27.4756C13.2643 30.5165 13.4438 34.1963 11.1617 36.4546Z" fill="#1CBFAC"/>
  <path d="M29.1441 20.3567C29.1441 17.5459 26.8416 15.2674 24.0012 15.2674C21.1609 15.2674 18.8584 17.5459 18.8584 20.3567V44.1067C18.8584 46.9174 21.1609 49.196 24.0012 49.196C26.8416 49.196 29.1441 46.9174 29.1441 44.1067V20.3567Z" fill="#1CBFAC"/>
  </svg>
  